<svg xmlns="http://www.w3.org/2000/svg" viewBox="0 0 800 800" role="img" aria-labelledby="title desc">
  <title id="title">QR placeholder</title>
  <desc id="desc">Placeholder graphic for a donation QR code.</desc>
  <rect width="800" height="800" rx="48" fill="#fff8f0"/>
  <rect x="60" y="60" width="680" height="680" rx="28" fill="#24170f"/>
  <rect x="105" y="105" width="590" height="590" rx="12" fill="#fff8f0"/>
  <g fill="#24170f">
    <rect x="130" y="130" width="140" height="140" rx="12"/>
    <rect x="160" y="160" width="80" height="80" rx="8" fill="#fff8f0"/>
    <rect x="530" y="130" width="140" height="140" rx="12"/>
    <rect x="560" y="160" width="80" height="80" rx="8" fill="#fff8f0"/>
    <rect x="130" y="530" width="140" height="140" rx="12"/>
    <rect x="160" y="560" width="80" height="80" rx="8" fill="#fff8f0"/>
    <rect x="320" y="130" width="25" height="25"/>
    <rect x="370" y="130" width="25" height="25"/>
    <rect x="395" y="155" width="25" height="25"/>
    <rect x="345" y="180" width="25" height="25"/>
    <rect x="295" y="205" width="25" height="25"/>
    <rect x="345" y="230" width="25" height="25"/>
    <rect x="420" y="205" width="25" height="25"/>
    <rect x="470" y="205" width="25" height="25"/>
    <rect x="320" y="280" width="25" height="25"/>
    <rect x="370" y="280" width="25" height="25"/>
    <rect x="420" y="280" width="25" height="25"/>
    <rect x="470" y="280" width="25" height="25"/>
    <rect x="295" y="330" width="25" height="25"/>
    <rect x="345" y="330" width="25" height="25"/>
    <rect x="445" y="330" width="25" height="25"/>
    <rect x="495" y="330" width="25" height="25"/>
    <rect x="320" y="380" width="25" height="25"/>
    <rect x="395" y="380" width="25" height="25"/>
    <rect x="470" y="380" width="25" height="25"/>
    <rect x="545" y="380" width="25" height="25"/>
    <rect x="295" y="430" width="25" height="25"/>
    <rect x="345" y="430" width="25" height="25"/>
    <rect x="395" y="430" width="25" height="25"/>
    <rect x="495" y="430" width="25" height="25"/>
    <rect x="545" y="430" width="25" height="25"/>
    <rect x="320" y="480" width="25" height="25"/>
    <rect x="370" y="480" width="25" height="25"/>
    <rect x="445" y="480" width="25" height="25"/>
    <rect x="520" y="480" width="25" height="25"/>
    <rect x="320" y="530" width="25" height="25"/>
    <rect x="395" y="530" width="25" height="25"/>
    <rect x="470" y="530" width="25" height="25"/>
    <rect x="520" y="530" width="25" height="25"/>
    <rect x="320" y="580" width="25" height="25"/>
    <rect x="370" y="580" width="25" height="25"/>
    <rect x="445" y="580" width="25" height="25"/>
    <rect x="495" y="580" width="25" height="25"/>
    <rect x="545" y="580" width="25" height="25"/>
  </g>
  <text
    x="400"
    y="738"
    text-anchor="middle"
    font-family="Arial, sans-serif"
    font-size="40"
    font-weight="700"
    fill="#24170f"
  >
    Replace with your real QR
  </text>
</svg>
